<svg width="15%" height="15%" viewBox="0 0 143 137"><path  stroke="black" stroke-width="1" d="M 143.00,0.00 C 143.00,0.00 143.00,137.00 143.00,137.00 143.00,137.00 0.00,137.00 0.00,137.00 0.00,137.00 0.00,0.00 0.00,0.00 0.00,0.00 143.00,0.00 143.00,0.00 Z M 93.00,0.00 C 120.61,-0.00 143.00,22.39 143.00,50.00 143.00,50.00 143.00,87.00 143.00,87.00 143.00,114.61 120.61,137.00 93.00,137.00 93.00,137.00 50.00,137.00 50.00,137.00 22.39,137.00 0.00,114.61 0.00,87.00 0.00,87.00 0.00,50.00 0.00,50.00 0.00,22.39 22.39,0.00 50.00,0.00 50.00,0.00 93.00,0.00 93.00,0.00 Z" /></svg>
